<svg width="25" height="31" viewBox="0 0 25 31" fill="none" xmlns="http://www.w3.org/2000/svg">
<path d="M3.50598 3.61157C3.50598 2.78657 3.79948 2.08057 4.38648 1.49357C4.97448 0.905572 5.68098 0.611572 6.50598 0.611572L18.506 0.611572C19.331 0.611572 20.037 0.905572 20.624 1.49357C21.212 2.08057 21.506 2.78657 21.506 3.61157L21.506 27.6116C21.506 28.4366 21.212 29.1431 20.624 29.7311C20.037 30.3181 19.331 30.6116 18.506 30.6116L6.50598 30.6116C5.68098 30.6116 4.97448 30.3181 4.38648 29.7311C3.79948 29.1431 3.50598 28.4366 3.50598 27.6116L3.50598 3.61157ZM8.00598 9.61157C8.00598 10.0366 8.14998 10.3931 8.43798 10.6811C8.72498 10.9681 9.08098 11.1116 9.50598 11.1116L11.006 11.1116L11.006 12.6116C11.006 13.0366 11.15 13.3931 11.438 13.6811C11.725 13.9681 12.081 14.1116 12.506 14.1116C12.931 14.1116 13.2875 13.9681 13.5755 13.6811C13.8625 13.3931 14.006 13.0366 14.006 12.6116L14.006 11.1116L15.506 11.1116C15.931 11.1116 16.2875 10.9681 16.5755 10.6811C16.8625 10.3931 17.006 10.0366 17.006 9.61157C17.006 9.18657 16.8625 8.83007 16.5755 8.54207C16.2875 8.25507 15.931 8.11157 15.506 8.11157L14.006 8.11157L14.006 6.61157C14.006 6.18657 13.8625 5.83007 13.5755 5.54207C13.2875 5.25507 12.931 5.11157 12.506 5.11157C12.081 5.11157 11.725 5.25507 11.438 5.54207C11.15 5.83007 11.006 6.18657 11.006 6.61157L11.006 8.11157L9.50598 8.11157C9.08098 8.11157 8.72498 8.25507 8.43798 8.54207C8.14998 8.83007 8.00598 9.18657 8.00598 9.61157ZM8.00598 19.3616C8.00598 19.9866 8.22498 20.5176 8.66298 20.9546C9.09998 21.3926 9.63098 21.6116 10.256 21.6116C10.881 21.6116 11.412 21.3926 11.849 20.9546C12.287 20.5176 12.506 19.9866 12.506 19.3616C12.506 18.7366 12.287 18.2056 11.849 17.7686C11.412 17.3306 10.881 17.1116 10.256 17.1116C9.63098 17.1116 9.09998 17.3306 8.66298 17.7686C8.22498 18.2056 8.00598 18.7366 8.00598 19.3616ZM12.506 23.8616C12.506 24.4866 12.725 25.0176 13.163 25.4546C13.6 25.8926 14.131 26.1116 14.756 26.1116C15.381 26.1116 15.912 25.8926 16.349 25.4546C16.787 25.0176 17.006 24.4866 17.006 23.8616C17.006 23.2366 16.787 22.7056 16.349 22.2686C15.912 21.8306 15.381 21.6116 14.756 21.6116C14.131 21.6116 13.6 21.8306 13.163 22.2686C12.725 22.7056 12.506 23.2366 12.506 23.8616Z" fill="#2B788B"/>
</svg>
